<svg width="637" height="640" viewBox="0 0 637 640" fill="none" xmlns="http://www.w3.org/2000/svg">
<path d="M0.753174 20C0.753174 8.95431 9.70748 0 20.7532 0H616.753C627.799 0 636.753 8.95431 636.753 20V640H120.753C54.479 640 0.753174 586.274 0.753174 520V20Z" fill="url(#paint0_linear)"/>
<path d="M365.203 239.79C559.263 170.979 22.2015 234.679 0 292.69V520C0 586.274 53.7258 640 120 640H636L636 195.023C520.234 362.214 184.864 303.735 365.203 239.79Z" fill="#FFC590" fill-opacity="0.1"/>
<path d="M228.693 216.169C418.902 176.867 -0.00012207 151.737 0 207.005V481.819C0 481.819 239.525 425.023 171.823 481.819C104.122 538.615 446.915 415.84 410.817 515.209C374.719 614.578 636 481.819 636 481.819V176.3C472.719 268.414 99.5506 242.853 228.693 216.169Z" fill="url(#paint1_linear)" fill-opacity="0.2"/>
<path d="M442.094 178.232C440.046 178.03 435.387 178.087 429.443 177.46C425.775 177.283 417.95 176.897 415.99 176.767C414.03 176.637 417.26 178.669 419.12 179.701C429.716 180.204 451.735 181.372 455.043 182.017C459.18 182.824 479.097 187.337 483.674 188.505C488.252 189.673 495.9 193.173 505.576 196.675C515.253 200.176 495.18 190 491.425 188.953C487.671 187.906 477.994 184.404 474.721 184.121C471.448 183.837 459.964 180.515 457.495 180.152C455.025 179.788 444.142 178.435 442.094 178.232Z" fill="#FFFCF7"/>
<path d="M472.999 454.066C476.013 453.249 484.162 452.179 490.037 451.593C489.245 452.274 487.155 453.738 485.132 454.146C482.603 454.656 471.236 457.079 466.995 458.534C462.754 459.989 452.767 460.726 449.395 460.547C446.698 460.403 455.118 458.428 459.665 457.459C463.105 456.6 470.588 454.719 472.999 454.066Z" fill="#FFFCF7"/>
<path d="M428.671 187.845C423.949 180.557 427.257 158.277 430.896 149.649C409.006 144.319 374.704 173.856 380.124 183.376C385.544 192.896 434.573 196.955 428.671 187.845Z" fill="#FFC590"/>
<path d="M535.652 440.902C538.241 419.932 533.348 408.31 524.867 386.75C541.169 379.281 586.231 405.985 580.776 424.551C576.821 438.011 533.936 454.797 535.652 440.902Z" fill="#FFC590"/>
<path d="M596.226 425.761C615.026 394.687 588.813 400.04 559.928 414.21C556.461 416.505 508.822 444.407 498.364 449.666C487.906 454.925 448.689 480.259 443.884 491.372C439.08 502.485 470.316 484.57 482.684 479.327C495.052 474.084 473.105 496.487 484.182 495.812C497.024 495.029 508.199 491.374 517.878 487.271C527.558 483.167 572.725 464.602 596.226 425.761Z" fill="url(#paint2_linear)" fill-opacity="0.4"/>
<path d="M349.813 177.529C321.719 191.514 336.946 200.096 364.583 203.113C368.175 203.042 415.852 204.71 425.917 205.709C435.983 206.708 479.737 204.763 494.98 229.698C500.436 238.625 502.398 212.546 490.937 202.74C482.117 195.194 445.62 182.614 457.612 178.587C468.151 175.048 438.03 170.717 429.067 169.236C420.104 167.754 384.931 160.048 349.813 177.529Z" fill="url(#paint3_linear)" fill-opacity="0.2"/>
<path d="M43.9862 283.173C23.6579 307.082 51.7277 306.315 78.3228 298.218C81.5978 296.739 126.223 279.922 135.734 276.477C198.831 253.623 209.358 280.196 229.068 284.535C239.285 286.784 208.197 261.378 217.126 253.05C225.615 245.133 144.764 247.494 154.205 239.074C162.502 231.675 133.105 239.542 124.282 241.706C115.459 243.869 69.3965 253.288 43.9862 283.173Z" fill="url(#paint4_linear)" fill-opacity="0.2"/>
<path d="M188.161 482.436C226.492 476.914 189.434 451.367 162.612 433.329C158.815 431.53 110.494 404.1 100.339 398.131C32.9652 358.536 60.2129 317.727 50.9469 295.276C46.1435 283.638 34.5943 337.721 22.9544 346.869C7.58887 358.946 67.4132 406.145 42.7137 421.513C31.3051 428.611 61.795 446.903 70.1565 453.347C78.518 459.791 137.739 489.7 188.161 482.436Z" fill="url(#paint5_linear)" fill-opacity="0.4"/>
<path d="M431.439 411.82C464.564 392.043 400.548 390.395 364.399 392.043C359.798 392.749 307.876 393.456 294.731 394.162C281.586 394.868 263.183 399.106 253.325 406.876C243.466 414.646 264.498 418.178 279.615 418.178H333.508C345.996 418.178 321.021 428.066 332.852 428.066C344.682 428.066 390.032 436.542 431.439 411.82Z" fill="url(#paint6_linear)" fill-opacity="0.4"/>
<path d="M151.901 441.813C153.749 440.581 158.214 436.271 149.479 424.983C155.91 429.259 164.98 439.575 149.812 446.63C130.852 455.449 99.9167 435.406 96.2577 432.199C92.5988 428.992 95.9248 426.186 97.9206 426.988C99.9164 427.789 102.046 435.954 120.341 441.967C138.636 447.98 147.567 444.703 151.901 441.813Z" fill="#FFFCF7"/>
<path d="M90.4504 425.01C88.9037 424.838 86.84 420.885 85.2932 418.65C83.9183 415.04 85.6367 413.837 90.1062 418.478C94.5757 423.12 91.9972 425.182 90.4504 425.01Z" fill="#FFFCF7"/>
<path d="M385.74 410.431C419.409 404.553 400.971 390.925 399.367 389.054C410.323 395.2 410.056 400.812 408.72 402.949C407.384 405.087 405.513 408.293 401.238 409.63C396.962 410.966 391.351 412.836 388.144 413.638C384.938 414.439 370.241 416.844 364.63 416.844C359.018 416.844 350.2 415.775 345.658 415.508C341.115 415.241 330.427 414.707 325.35 414.439C320.273 414.172 315.463 415.508 310.386 415.775C305.309 416.043 309.05 413.905 311.989 412.836C314.929 411.767 325.35 410.698 331.496 411.233C337.642 411.767 352.071 416.31 385.74 410.431Z" fill="#FFFCF7"/>
<path d="M303.438 420.852C306.378 420.318 314.127 417.913 321.342 417.913C322.944 418.18 322.144 420.051 318.67 420.585C315.197 421.12 310.387 422.456 307.982 423.257C305.577 424.059 300.767 424.861 298.63 424.861C296.492 424.861 291.415 424.059 285.269 422.723C280.352 421.654 284.823 421.387 287.674 421.387C288.92 421.654 291.788 422.242 293.285 422.456C295.155 422.723 300.499 421.387 303.438 420.852Z" fill="#FFFCF7"/>
<path d="M298.696 390.387C303.256 390.767 313.899 391.907 320.169 392.097C321.499 394.187 303.257 392.667 299.267 392.287C295.276 391.907 272.472 391.337 268.292 390.957C264.111 390.577 253.089 390.767 249.859 390.767C246.628 390.767 235.606 393.047 232.566 392.477C229.525 391.907 229.525 390.577 231.426 390.577C233.326 390.577 243.207 390.007 247.008 389.057C250.808 388.107 294.136 390.007 298.696 390.387Z" fill="#FFFCF7"/>
<path d="M582.435 428.71C583.763 426.513 584.762 420.996 584.176 417.701C585.351 416.552 586.654 416.68 586.806 418.212C586.959 419.745 587.187 424.624 586.114 426.795C585.04 428.966 583.737 431.417 582.102 433.128C580.466 434.839 577.605 437.188 575.433 438.695C573.262 440.201 570.706 443.036 568.765 444.261C566.823 445.487 564.038 448.602 562.122 450.083C560.205 451.564 554.559 457.028 552.412 458.79C550.266 460.552 545.054 465.199 542.933 467.217C540.812 469.234 538.052 472.605 531.436 476.102C524.819 479.6 529.086 475.821 531.207 473.803C533.328 471.786 534.222 470.407 539.792 466.756C545.361 463.105 553.717 453.759 556.374 451.946C559.031 450.133 571.576 438.821 575.229 436.651C578.883 434.481 581.106 430.906 582.435 428.71Z" fill="#FFFCF7"/>
<path d="M509.96 441.817C513.225 440.924 518.75 439.427 522.763 438.27C524.806 438.066 521.89 439.87 517.697 441.802C513.504 443.734 510.95 443.988 507.704 445.069C504.458 446.149 493.112 448.794 488.788 449.414C484.464 450.034 480.596 450.041 481.561 449.378C482.527 448.714 492.633 446.571 495.935 446.053C499.237 445.534 506.695 442.71 509.96 441.817Z" fill="#FFFCF7"/>
<path d="M416.897 198.174C412.801 197.769 408.063 197.023 405.372 196.479C401.657 195.833 413.385 195.48 416.076 196.025C418.766 196.569 428.184 197.46 430.452 197.843C432.721 198.226 443.905 200.564 449.447 201.231C454.988 201.898 453.058 204.929 451.171 204.305C449.284 203.681 434.547 200.276 432.077 199.912C429.608 199.549 420.994 198.579 416.897 198.174Z" fill="#FFFCF7"/>
<path d="M79.1578 270.761C78.8314 269.128 79.1575 265.863 80.4634 263.577C79.8096 275.985 93.1991 274.026 94.8317 274.679C96.4644 275.332 107.893 275.005 112.465 274.352C117.036 273.699 126.179 271.74 129.771 271.74C133.363 271.74 137.608 268.148 140.873 265.862C144.139 263.577 153.935 257.372 158.18 256.719C162.425 256.066 181.69 252.801 187.568 251.495C193.446 250.189 203.242 251.495 194.425 252.801C185.609 254.107 177.772 255.413 170.915 256.72C164.058 258.026 162.098 259.005 155.894 260.638C149.69 262.271 147.078 264.883 142.506 268.148C137.935 271.414 129.445 273.7 124.547 274.679C119.649 275.659 110.505 277.292 105.607 277.618C100.709 277.945 88.6275 276.312 83.7295 275.659C78.8314 275.006 79.4841 272.393 79.1578 270.761Z" fill="#FFFCF7"/>
<path d="M113.027 241.71C114.176 240.687 122.468 236.592 128.747 234.209C129.41 233.536 131.823 231.912 136.173 230.804C141.61 229.418 150.34 226.828 157.641 225.594C164.942 224.359 167.777 225.045 164.153 225.968C160.528 226.892 152.333 228.511 148.735 229.741C145.136 230.971 137.938 233.432 132.246 235.456C126.555 237.48 127.116 236.816 123.008 239.323C118.9 241.831 118.822 240.911 113.027 241.71Z" fill="#FFFCF7"/>
<path d="M135.55 259.77C128.641 253.74 125.537 230.158 126.73 220.341C102.957 221.278 76.6944 261.22 84.9592 269.314C93.224 277.409 144.186 267.308 135.55 259.77Z" fill="#FFC590"/>
<path fill-rule="evenodd" clip-rule="evenodd" d="M235.841 333.38L242.041 361.564L224.125 365.506L225.946 373.784C208.055 380.357 197.049 383.352 198.415 371.88C202.023 341.571 172.642 356.923 143.629 372.082C135.682 376.235 127.762 380.373 120.555 383.554L115.349 359.887L157.764 253.381L197.534 244.632L217.925 337.322L235.841 333.38ZM175.227 286.787L149.213 352.437L187.802 343.948L175.227 286.787Z" fill="#FFFCF7"/>
<path fill-rule="evenodd" clip-rule="evenodd" d="M427.62 329.472C447.678 329.785 467.911 327.074 487.305 320.043L491.162 312.091L474.523 304.02L515.941 218.629L479.005 200.713L379.258 257.813L366.664 283.777L433.953 316.415L427.62 329.472ZM472.09 237.789L410.708 273.067L446.547 290.45L472.09 237.789Z" fill="url(#paint7_linear)"/>
<path fill-rule="evenodd" clip-rule="evenodd" d="M427.62 329.472C447.678 329.785 467.911 327.074 487.305 320.043L491.162 312.091L474.523 304.02L515.941 218.629L479.005 200.713L379.258 257.813L366.664 283.777L433.953 316.415L427.62 329.472ZM472.09 237.789L410.708 273.067L446.547 290.45L472.09 237.789Z" fill="url(#paint8_linear)" fill-opacity="0.02"/>
<path fill-rule="evenodd" clip-rule="evenodd" d="M262.993 336.147C260.222 323.214 260.738 308.367 264.704 292.347C275.889 247.173 309.202 222.551 347.274 231.977C385.347 241.403 403.324 278.724 392.139 323.898C390.229 331.615 387.737 338.717 384.72 345.14C315.699 386.999 247.346 350.237 286.381 350.065C296.485 350.02 293.487 341.319 269.436 336.946C267.364 336.569 265.21 336.308 262.993 336.147ZM340.339 259.989C320.02 254.959 304.277 267.81 296.267 300.161C288.501 331.527 296.43 350.239 316.749 355.27C337.067 360.3 352.811 347.449 360.576 316.084C368.586 283.732 360.658 265.02 340.339 259.989Z" fill="#FFFCF7"/>
<path d="M326.963 399.654C334.853 391.177 333.748 362.734 329.966 351.383C361.948 347.811 405.948 389.785 396.705 400.965C387.463 412.144 317.1 410.25 326.963 399.654Z" fill="#FFC590"/>
<path d="M114.356 427.738C106.916 417.075 114.833 394.959 109.79 372.531C122.863 366.822 156.945 414.934 151.461 432.88C147.484 445.892 121.54 438.034 114.356 427.738Z" fill="#FFC590"/>
<defs>
<linearGradient id="paint0_linear" x1="297.061" y1="382.243" x2="773.357" y2="-157.205" gradientUnits="userSpaceOnUse">
<stop stop-color="#FFF8EC"/>
<stop offset="0.707106" stop-color="#F2F6F0"/>
<stop offset="1" stop-color="#FFF9F0" stop-opacity="0.62"/>
</linearGradient>
<linearGradient id="paint1_linear" x1="500.33" y1="397.221" x2="42.8054" y2="646.168" gradientUnits="userSpaceOnUse">
<stop stop-color="#FFB46E"/>
<stop offset="1" stop-color="#FFC590" stop-opacity="0"/>
</linearGradient>
<linearGradient id="paint2_linear" x1="517.411" y1="455.545" x2="399.738" y2="494.891" gradientUnits="userSpaceOnUse">
<stop stop-color="#FFC590"/>
<stop offset="1" stop-color="#FFC590" stop-opacity="0"/>
</linearGradient>
<linearGradient id="paint3_linear" x1="435.528" y1="216.939" x2="480.547" y2="152.205" gradientUnits="userSpaceOnUse">
<stop offset="0.0411764" stop-color="#FFC590"/>
<stop offset="0.908328" stop-color="#FFC590" stop-opacity="0"/>
</linearGradient>
<linearGradient id="paint4_linear" x1="148.992" y1="283.021" x2="164.917" y2="205.797" gradientUnits="userSpaceOnUse">
<stop offset="0.0411764" stop-color="#FFC590"/>
<stop offset="0.908328" stop-color="#FFC590" stop-opacity="0"/>
</linearGradient>
<linearGradient id="paint5_linear" x1="97.8294" y1="379.848" x2="2.43969" y2="420.858" gradientUnits="userSpaceOnUse">
<stop offset="0.0411764" stop-color="#FFC590"/>
<stop offset="0.908328" stop-color="#FFC590" stop-opacity="0"/>
</linearGradient>
<linearGradient id="paint6_linear" x1="326.038" y1="410.42" x2="187.238" y2="397.243" gradientUnits="userSpaceOnUse">
<stop stop-color="#FFC590"/>
<stop offset="1" stop-color="#FFC590" stop-opacity="0"/>
</linearGradient>
<linearGradient id="paint7_linear" x1="400.014" y1="267.318" x2="372.382" y2="278.68" gradientUnits="userSpaceOnUse">
<stop stop-color="#FFFCF7"/>
<stop offset="1" stop-color="#FFDBBA"/>
</linearGradient>
<linearGradient id="paint8_linear" x1="477.431" y1="244.435" x2="484.077" y2="197.177" gradientUnits="userSpaceOnUse">
<stop stop-color="#FFC590"/>
<stop offset="1" stop-color="#FFC590" stop-opacity="0"/>
<stop offset="1" stop-color="#FFFCF7"/>
</linearGradient>
</defs>
</svg>
