<svg width="158" height="17" viewBox="0 0 158 17" fill="none" xmlns="http://www.w3.org/2000/svg">
<path d="M100.038 1H102.909V3.64123H100.038V1Z" fill="#2A2A2A"/>
<path d="M37.1379 4.74258H40.1981L42.2228 10.2303C42.7172 11.657 43.1173 12.8895 43.2589 13.5425C43.4239 12.7928 43.8474 11.5356 44.3418 10.2303L46.4607 4.74258H49.4267L44.5776 16.6852H41.7519L37.1379 4.74258Z" fill="#2B2B2B"/>
<path d="M50.5796 13.2762C50.5796 11.0766 52.1334 9.69796 54.8876 9.48054L58.3719 9.21441V8.94828C58.3719 7.3282 57.43 6.67595 55.9704 6.67595C54.2757 6.67595 53.3338 7.40091 53.3338 8.65815H50.8855C50.8855 6.07097 52.957 4.37891 56.1114 4.37891C59.2423 4.37891 61.1729 6.11969 61.1729 9.43183V16.6844H58.6538L58.442 14.9196C57.9477 16.1528 56.3706 16.9985 54.5576 16.9985C52.0866 16.9992 50.5796 15.5246 50.5796 13.2762ZM58.3953 11.8503V11.2221L55.9704 11.4155C54.1815 11.5849 53.4988 12.1892 53.4988 13.1563C53.4988 14.2441 54.2049 14.7763 55.4995 14.7763C57.265 14.7749 58.3953 13.6871 58.3953 11.8503Z" fill="#2B2B2B"/>
<path d="M69.7181 4.37967C72.8958 4.37967 75.0615 6.19316 75.3682 9.06974H72.4964C72.1671 7.7158 71.2018 7.01483 69.8364 7.01483C68 7.01483 66.7763 8.44149 66.7763 10.6898C66.7763 12.9381 67.9066 14.3401 69.7422 14.3401C71.1785 14.3401 72.1905 13.6151 72.4964 12.3092H75.3923C75.0389 15.089 72.779 16.9992 69.7422 16.9992C66.2111 16.9992 63.9038 14.4848 63.9038 10.6891C63.9038 6.99084 66.2812 4.37967 69.7181 4.37967Z" fill="#2B2B2B"/>
<path d="M77.6035 13.2762C77.6035 11.0766 79.1573 9.69796 81.9115 9.48054L85.3959 9.21441V8.94828C85.3959 7.3282 84.4539 6.67595 82.9951 6.67595C81.3003 6.67595 80.3584 7.40091 80.3584 8.65815H77.9102C77.9102 6.07097 79.9817 4.37891 83.136 4.37891C86.2669 4.37891 88.1975 6.11969 88.1975 9.43183V16.6844H85.6777L85.466 14.9196C84.9716 16.1528 83.3945 16.9985 81.5815 16.9985C79.1099 16.9992 77.6035 15.5246 77.6035 13.2762ZM85.4192 11.8503V11.2221L82.9943 11.4155C81.2054 11.5849 80.5227 12.1892 80.5227 13.1563C80.5227 14.2441 81.2288 14.7763 82.5234 14.7763C84.2889 14.7749 85.4192 13.6871 85.4192 11.8503Z" fill="#2B2B2B"/>
<path d="M92.529 16.6851V7.20825H90.2925V4.7425H92.529V1.01953H95.4007V4.7425H97.6606V7.20825H95.4007V16.6851H92.529Z" fill="#2B2B2B"/>
<path d="M100.037 6.41718H102.909L102.909 16.667H100.037L100.037 6.41718Z" fill="#2B2B2B"/>
<path d="M111.997 4.40372C115.599 4.40372 118.211 6.96617 118.211 10.6891C118.211 14.4121 115.598 16.9746 111.997 16.9746C108.395 16.9746 105.782 14.4121 105.782 10.6891C105.782 6.9669 108.395 4.40372 111.997 4.40372ZM111.997 14.3401C113.974 14.3401 115.339 12.8655 115.339 10.6899C115.339 8.51426 113.974 7.03961 111.997 7.03961C110.019 7.03961 108.654 8.51426 108.654 10.6899C108.654 12.8655 110.019 14.3401 111.997 14.3401Z" fill="#2B2B2B"/>
<path d="M121.083 16.6851V4.74251H123.743L123.978 6.28987C124.707 5.08136 126.12 4.37967 127.697 4.37967C130.617 4.37967 132.123 6.24116 132.123 9.33588V16.6851H129.251V10.0368C129.251 8.03066 128.286 7.06355 126.803 7.06355C125.037 7.06355 123.955 8.32079 123.955 10.255V16.6858H121.083V16.6851Z" fill="#2B2B2B"/>
<path d="M134.853 10.7138C134.853 6.96684 137.231 4.37967 140.644 4.37967C144.129 4.37967 146.341 6.77342 146.341 10.4964V11.3908L137.584 11.4148C137.796 13.5184 138.879 14.5815 140.786 14.5815C142.363 14.5815 143.399 13.9532 143.728 12.8167H146.388C145.894 15.4279 143.775 16.9992 140.738 16.9992C137.278 16.9992 134.853 14.4128 134.853 10.7138ZM137.655 9.52929H143.493C143.493 7.88522 142.387 6.79742 140.668 6.79742C138.973 6.79742 137.937 7.7398 137.655 9.52929Z" fill="#2B2B2B"/>
<path d="M151.073 13.0589C151.096 14.0987 151.85 14.7509 153.168 14.7509C154.51 14.7509 155.239 14.1947 155.239 13.3243C155.239 12.72 154.933 12.2844 153.897 12.043L151.802 11.5355C149.707 11.0519 148.695 10.0368 148.695 8.12664C148.695 5.7816 150.625 4.37967 153.309 4.37967C155.922 4.37967 157.687 5.92703 157.711 8.24807H154.98C154.956 7.23298 154.297 6.58001 153.191 6.58001C152.061 6.58001 151.402 7.11155 151.402 8.00666C151.402 8.68363 151.92 9.11846 152.908 9.3606L155.003 9.86815C156.957 10.3277 157.946 11.2461 157.946 13.0836C157.946 15.5013 155.945 17 153.073 17C150.177 17 148.341 15.4046 148.341 13.0596H151.073V13.0589Z" fill="#2B2B2B"/>
<path d="M0 3.09695C7.47525 3.09695 13.535 9.15667 13.535 16.6319" stroke="#FF944D" stroke-width="5" stroke-miterlimit="10"/>
<path d="M27.2088 3.0968C19.7335 3.0968 13.6738 9.15652 13.6738 16.6318" stroke="#FF944D" stroke-width="5" stroke-miterlimit="10"/>
</svg>
