<svg width="212" height="23" viewBox="0 0 212 23" fill="none" xmlns="http://www.w3.org/2000/svg">
<path d="M50.3608 5.82129H54.4374L57.1346 13.1317C57.7931 15.0322 58.3262 16.6741 58.5148 17.544C58.7347 16.5453 59.2988 14.8705 59.9573 13.1317L62.7801 5.82129H66.7311L60.2715 21.7305H56.5072L50.3608 5.82129Z" fill="#363131"/>
<path d="M68.2671 17.1894C68.2671 14.2592 70.337 12.4226 74.0059 12.133L78.6476 11.7785V11.4239C78.6476 9.26578 77.3928 8.3969 75.4484 8.3969C73.1908 8.3969 71.9361 9.36265 71.9361 11.0375H68.6746C68.6746 7.59098 71.4342 5.33691 75.6362 5.33691C79.807 5.33691 82.3788 7.65588 82.3788 12.0681V21.7295H79.0231L78.741 19.3785C78.0825 21.0214 75.9815 22.1479 73.5663 22.1479C70.2747 22.1489 68.2671 20.1845 68.2671 17.1894ZM78.6787 15.2898V14.4529L75.4484 14.7106C73.0653 14.9363 72.1559 15.7412 72.1559 17.0296C72.1559 18.4787 73.0965 19.1877 74.821 19.1877C77.173 19.1858 78.6787 17.7367 78.6787 15.2898Z" fill="#363131"/>
<path d="M93.7621 5.33813C97.9952 5.33813 100.88 7.75396 101.289 11.586H97.4631C97.0245 9.78232 95.7386 8.84854 93.9197 8.84854C91.4734 8.84854 89.8431 10.749 89.8431 13.7441C89.8431 16.7392 91.3488 18.6068 93.7942 18.6068C95.7074 18.6068 97.0556 17.641 97.4631 15.9013H101.321C100.85 19.6045 97.8396 22.1491 93.7942 22.1491C89.0903 22.1491 86.0166 18.7995 86.0166 13.7432C86.0166 8.81657 89.1837 5.33813 93.7621 5.33813Z" fill="#363131"/>
<path d="M104.267 17.1894C104.267 14.2592 106.336 12.4226 110.005 12.133L114.647 11.7785V11.4239C114.647 9.26578 113.392 8.3969 111.449 8.3969C109.191 8.3969 107.937 9.36265 107.937 11.0375H104.675C104.675 7.59098 107.435 5.33691 111.637 5.33691C115.807 5.33691 118.379 7.65588 118.379 12.0681V21.7295H115.023L114.74 19.3785C114.082 21.0214 111.981 22.1479 109.566 22.1479C106.273 22.1489 104.267 20.1845 104.267 17.1894ZM114.678 15.2898V14.4529L111.448 14.7106C109.065 14.9363 108.155 15.7412 108.155 17.0296C108.155 18.4787 109.096 19.1877 110.821 19.1877C113.173 19.1858 114.678 17.7367 114.678 15.2898Z" fill="#363131"/>
<path d="M124.149 21.7306V9.1061H121.17V5.82139H124.149V0.861877H127.975V5.82139H130.985V9.1061H127.975V21.7306H124.149Z" fill="#363131"/>
<path d="M134.152 8.05225H137.978L137.977 21.7065H134.152L134.152 8.05225Z" fill="#363131"/>
<path d="M150.083 5.37012C154.881 5.37012 158.361 8.78366 158.361 13.7432C158.361 18.7027 154.88 22.1162 150.083 22.1162C145.284 22.1162 141.804 18.7027 141.804 13.7432C141.803 8.78463 145.284 5.37012 150.083 5.37012ZM150.083 18.6068C152.717 18.6068 154.536 16.6424 154.536 13.7441C154.536 10.8459 152.717 8.88149 150.083 8.88149C147.449 8.88149 145.63 10.8459 145.63 13.7441C145.63 16.6424 147.449 18.6068 150.083 18.6068Z" fill="#363131"/>
<path d="M162.187 21.7307V5.82149H165.731L166.044 7.88279C167.015 6.27289 168.898 5.33813 170.999 5.33813C174.887 5.33813 176.894 7.81789 176.894 11.9405V21.7307H173.068V12.8743C173.068 10.2018 171.783 8.91344 169.807 8.91344C167.455 8.91344 166.013 10.5882 166.013 13.1649V21.7317H162.187V21.7307Z" fill="#363131"/>
<path d="M180.531 13.7761C180.531 8.78461 183.698 5.33813 188.246 5.33813C192.887 5.33813 195.834 8.52695 195.834 13.4865V14.6779L184.169 14.7099C184.451 17.5122 185.894 18.9284 188.434 18.9284C190.535 18.9284 191.916 18.0914 192.354 16.5774H195.898C195.239 20.0559 192.416 22.1491 188.371 22.1491C183.762 22.1491 180.531 18.7036 180.531 13.7761ZM184.263 12.1981H192.041C192.041 10.008 190.567 8.55891 188.278 8.55891C186.019 8.55891 184.639 9.81429 184.263 12.1981Z" fill="#363131"/>
<path d="M202.137 16.9C202.168 18.2852 203.172 19.1541 204.928 19.1541C206.716 19.1541 207.687 18.413 207.687 17.2536C207.687 16.4486 207.28 15.8684 205.9 15.5468L203.109 14.8707C200.318 14.2265 198.969 12.8743 198.969 10.3296C198.969 7.2057 201.541 5.33813 205.116 5.33813C208.597 5.33813 210.949 7.39943 210.98 10.4914H207.342C207.311 9.13914 206.433 8.26929 204.959 8.26929C203.453 8.26929 202.576 8.97737 202.576 10.1698C202.576 11.0716 203.266 11.6509 204.583 11.9734L207.373 12.6495C209.976 13.2617 211.293 14.4852 211.293 16.9329C211.293 20.1537 208.628 22.1501 204.802 22.1501C200.944 22.1501 198.499 20.0249 198.499 16.901H202.137V16.9Z" fill="#363131"/>
<path d="M0.887695 3.62921C10.8458 3.62921 18.9181 11.7016 18.9181 21.6597" stroke="#FF944D" stroke-width="5.51143" stroke-miterlimit="10"/>
<path d="M37.1335 3.62915C27.1754 3.62915 19.103 11.7015 19.103 21.6596" stroke="#FF944D" stroke-width="5.51143" stroke-miterlimit="10"/>
</svg>
