<svg width="45" height="43" viewBox="0 0 45 43" fill="none" xmlns="http://www.w3.org/2000/svg">
<path d="M42.1829 18.63L41.5492 19.2691L41.5492 19.2691L42.1829 18.63ZM35.3046 16.4048L35.2762 15.5052L35.2625 15.5056L35.2487 15.5065L35.3046 16.4048ZM43.224 20.9662L42.3242 20.9447L42.3239 20.9576L42.324 20.9704L43.224 20.9662ZM35.3283 25.5937L35.2787 26.4923L35.2933 26.4931L35.3079 26.4935L35.3283 25.5937ZM27.6288 25.1687L27.6784 24.2701L27.0998 24.2381L26.8313 24.7516L27.6288 25.1687ZM19.3974 40.9073L19.8622 41.678L20.0781 41.5478L20.1949 41.3244L19.3974 40.9073ZM14.9097 41.0154L14.0278 40.8359L13.8384 41.7666L14.778 41.9057L14.9097 41.0154ZM18.2404 24.6504L19.1223 24.8299L19.33 23.8092L18.29 23.7518L18.2404 24.6504ZM8.6731 24.1223L8.7227 23.2237L8.0288 23.1854L7.81623 23.847L8.6731 24.1223ZM6.9242 29.566L7.76787 29.8794L7.77489 29.8605L7.78106 29.8413L6.9242 29.566ZM5.66935 30.4865L5.76947 31.381L5.78073 31.3796L5.66935 30.4865ZM2.34474 30.8586L1.45336 30.7344L1.29339 31.8819L2.44486 31.753L2.34474 30.8586ZM3.34168 23.7071L4.23306 23.8314L4.34954 22.9958L3.52318 22.8256L3.34168 23.7071ZM2.00928 22.9935L2.64299 22.3545L2.00928 22.9935ZM1.22478 21.1269L0.324767 21.1265L0.32479 21.1311L1.22478 21.1269ZM3.25402 18.5311L3.47007 19.4047L4.2566 19.2102L4.14552 18.4077L3.25402 18.5311ZM2.26697 11.3998L2.35811 10.5044L1.21841 10.3884L1.37547 11.5232L2.26697 11.3998ZM5.6076 11.7398L5.7272 10.8478L5.713 10.8459L5.69875 10.8444L5.6076 11.7398ZM6.55721 12.1877L7.19092 11.5487L7.19092 11.5487L6.55721 12.1877ZM6.86464 12.6571L7.72367 12.3887L7.71178 12.3506L7.69658 12.3138L6.86464 12.6571ZM8.55592 18.0688L7.6969 18.3373L7.90742 19.0109L8.6118 18.9671L8.55592 18.0688ZM18.2119 17.4681L18.2678 18.3664L19.3001 18.3021L19.0938 17.2886L18.2119 17.4681ZM14.9097 1.24295L14.778 0.352646L13.8384 0.491719L14.0278 1.42244L14.9097 1.24295ZM19.3974 1.35109L20.195 0.933985L20.0781 0.710572L19.8622 0.580375L19.3974 1.35109ZM27.5238 16.8888L26.7262 17.3059L26.9969 17.8233L27.5796 17.7871L27.5238 16.8888ZM42.8166 17.9909C41.0717 16.2606 37.932 15.4212 35.2762 15.5052L35.3331 17.3043C37.7003 17.2295 40.2787 18.0092 41.5492 19.2691L42.8166 17.9909ZM44.1237 20.9878C44.1524 19.7887 43.6015 18.7692 42.8166 17.9909L41.5492 19.2691C42.0804 19.7958 42.3382 20.363 42.3242 20.9447L44.1237 20.9878ZM35.3079 26.4935C37.2442 26.5374 39.375 26.0949 41.0503 25.2196C42.6999 24.3578 44.1332 22.9393 44.124 20.9621L42.324 20.9704C42.3286 21.9565 41.617 22.8927 40.2168 23.6242C38.8424 24.3423 37.0185 24.7318 35.3487 24.6939L35.3079 26.4935ZM27.5792 26.0673L35.2787 26.4923L35.3779 24.6951L27.6784 24.2701L27.5792 26.0673ZM20.1949 41.3244L28.4263 25.5858L26.8313 24.7516L18.5999 40.4902L20.1949 41.3244ZM14.9097 41.0154C14.778 41.9057 14.7781 41.9057 14.7782 41.9057C14.7782 41.9057 14.7784 41.9058 14.7785 41.9058C14.7787 41.9058 14.779 41.9059 14.7794 41.9059C14.78 41.906 14.7809 41.9061 14.782 41.9063C14.7842 41.9066 14.7872 41.9071 14.791 41.9076C14.7987 41.9087 14.8096 41.9103 14.8235 41.9122C14.8513 41.9161 14.8914 41.9217 14.9423 41.9284C15.0439 41.9419 15.1889 41.9602 15.3656 41.9801C15.718 42.0197 16.2018 42.0663 16.7222 42.0927C17.2388 42.119 17.8121 42.1266 18.3373 42.0827C18.8255 42.0418 19.4151 41.9476 19.8622 41.678L18.9327 40.1365C18.8655 40.1771 18.6371 40.2513 18.1874 40.2889C17.7747 40.3234 17.2904 40.3193 16.8136 40.2951C16.3407 40.271 15.8953 40.2283 15.567 40.1914C15.4034 40.1729 15.2701 40.1561 15.1785 40.144C15.1328 40.1379 15.0975 40.1331 15.0742 40.1298C15.0625 40.1281 15.0539 40.1269 15.0483 40.1261C15.0456 40.1257 15.0436 40.1254 15.0425 40.1252C15.0419 40.1252 15.0415 40.1251 15.0414 40.1251C15.0413 40.1251 15.0413 40.1251 15.0413 40.1251C15.0413 40.1251 15.0414 40.1251 15.0414 40.1251C15.0414 40.1251 15.0415 40.1251 14.9097 41.0154ZM17.3584 24.4709L14.0278 40.8359L15.7917 41.1949L19.1223 24.8299L17.3584 24.4709ZM8.62349 25.021L18.1908 25.5491L18.29 23.7518L8.7227 23.2237L8.62349 25.021ZM7.78106 29.8413L9.52996 24.3976L7.81623 23.847L6.06733 29.2907L7.78106 29.8413ZM5.78073 31.3796C6.63693 31.2728 7.45065 30.7334 7.76787 29.8794L6.08052 29.2526C6.03347 29.3793 5.85848 29.5559 5.55796 29.5934L5.78073 31.3796ZM2.44486 31.753L5.76946 31.3809L5.56924 29.5921L2.24463 29.9642L2.44486 31.753ZM2.4503 23.5829L1.45336 30.7344L3.23612 30.9829L4.23306 23.8314L2.4503 23.5829ZM1.37558 23.6326C1.85512 24.1082 2.47046 24.4466 3.16017 24.5886L3.52318 22.8256C3.18171 22.7553 2.87897 22.5885 2.64299 22.3545L1.37558 23.6326ZM0.32479 21.1311C0.329318 22.1049 0.734508 22.9969 1.37558 23.6326L2.64299 22.3545C2.32576 22.0399 2.12699 21.5988 2.12477 21.1227L0.32479 21.1311ZM3.03796 17.6574C1.46768 18.0457 0.325492 19.4535 0.324779 21.1265L2.12478 21.1273C2.12514 20.2948 2.69014 19.5976 3.47007 19.4047L3.03796 17.6574ZM1.37547 11.5232L2.36251 18.6544L4.14552 18.4077L3.15847 11.2764L1.37547 11.5232ZM5.69875 10.8444L2.35811 10.5044L2.17583 12.2951L5.51646 12.6352L5.69875 10.8444ZM7.19092 11.5487C6.79358 11.1546 6.26807 10.9203 5.7272 10.8478L5.48801 12.6318C5.68526 12.6583 5.8353 12.7393 5.9235 12.8268L7.19092 11.5487ZM7.69658 12.3138C7.58828 12.0514 7.42417 11.78 7.19092 11.5487L5.9235 12.8268C5.95858 12.8616 5.99952 12.9201 6.0327 13.0005L7.69658 12.3138ZM9.41495 17.8003L7.72367 12.3887L6.00562 12.9256L7.6969 18.3373L9.41495 17.8003ZM18.156 16.5698L8.50004 17.1705L8.6118 18.9671L18.2678 18.3664L18.156 16.5698ZM19.0938 17.2886L15.7917 1.06346L14.0278 1.42244L17.33 17.6476L19.0938 17.2886ZM14.9097 1.24295C15.0415 2.13325 15.0414 2.13326 15.0414 2.13327C15.0414 2.13327 15.0413 2.13328 15.0413 2.13328C15.0413 2.13328 15.0413 2.13328 15.0414 2.13327C15.0416 2.13324 15.0419 2.13319 15.0425 2.1331C15.0436 2.13294 15.0456 2.13265 15.0484 2.13225C15.0539 2.13146 15.0625 2.13021 15.0742 2.12857C15.0975 2.12529 15.1328 2.12043 15.1785 2.11437C15.2701 2.10225 15.4034 2.0854 15.567 2.06698C15.8954 2.03002 16.3407 1.98733 16.8136 1.96329C17.2904 1.93906 17.7747 1.93492 18.1874 1.96942C18.6371 2.00703 18.8655 2.08129 18.9327 2.1218L19.8622 0.580375C19.4152 0.310796 18.8255 0.216502 18.3374 0.175684C17.8121 0.131767 17.2388 0.139357 16.7222 0.165611C16.2018 0.192061 15.718 0.238614 15.3657 0.278279C15.1889 0.298173 15.0439 0.316485 14.9423 0.329942C14.8914 0.336674 14.8513 0.342202 14.8235 0.346119C14.8096 0.348078 14.7987 0.349635 14.791 0.350739C14.7872 0.351291 14.7842 0.351731 14.782 0.35205C14.7809 0.35221 14.78 0.352341 14.7794 0.35244C14.779 0.35249 14.7787 0.352532 14.7785 0.352566C14.7784 0.352583 14.7783 0.352603 14.7782 0.352612C14.7781 0.35263 14.778 0.352646 14.9097 1.24295ZM18.5999 1.76819L26.7262 17.3059L28.3213 16.4717L20.195 0.933985L18.5999 1.76819ZM35.2487 15.5065L27.4679 15.9905L27.5796 17.7871L35.3605 17.303L35.2487 15.5065Z" fill="#00B9D2"/>
</svg>
