<svg width="40" height="41" viewBox="0 0 40 41" fill="none" xmlns="http://www.w3.org/2000/svg">
<rect x="0.5" y="0.592651" width="39" height="39" rx="19.5" fill="#FFC590" fill-opacity="0.1" stroke="#FFC590"/>
<path fill-rule="evenodd" clip-rule="evenodd" d="M21.2951 30.0075C21.8474 30.0075 22.2951 29.5598 22.2951 29.0075L22.2951 22.0759L29.2273 22.0759C29.7796 22.0759 30.2273 21.6282 30.2273 21.0759V19.11C30.2273 18.5577 29.7796 18.11 29.2273 18.11L22.2951 18.11L22.2951 11.1777C22.2951 10.6254 21.8474 10.1777 21.2951 10.1777L19.3291 10.1777C18.7769 10.1777 18.3291 10.6254 18.3291 11.1777L18.3291 18.11L11.3975 18.11C10.8452 18.11 10.3975 18.5577 10.3975 19.11L10.3975 21.0759C10.3975 21.6282 10.8452 22.0759 11.3975 22.0759L18.3291 22.0759L18.3291 29.0075C18.3291 29.5598 18.7769 30.0075 19.3291 30.0075L21.2951 30.0075Z" fill="#FFAB73"/>
</svg>
